# xmcd
#
# Track frame offsets:
#	150
#	14327
#	28016
#	40464
#	51872
#	65179
#	78707
#	89675
#	102314
#	115357
#	128645
#	141300
#	154414
#	169010
#	183617
#	194023
#	206044
#	218905
#
# Disc length: 3101
#
# Revision: 1
# Processed by: cddbd v1.5.1PL0 Copyright (c) Steve Scherf et al.
# Submitted via: CDex 1.51
# Normalized: r0:DSETVAR1,TDELIM( - )
#
DISCID=1d0c1b12
DTITLE=Various Artist - Blues
DYEAR=2005
DGENRE=Blues
TTITLE0=John Lee Hooker - Boogie Chillen
TTITLE1=John Lee Hooker - Black Cat Blues
TTITLE2=Menphis Slim - Whiskey and Gin Blues
TTITLE3=Menphis Slim - Nobody Loves Me
TTITLE4=Charley Patton - Love My Stuff
TTITLE5=Charley Patton - Some Summer Day
TTITLE6=Robert Johnson - Love In Vain
TTITLE7=Robert Johnson - Come In My Kitchen
TTITLE8=Muddy Waters - Rolling tone
TTITLE9=Muddy Waters - Louisiana Blues
TTITLE10=Big Bill Broonzy - Long Tall Mma
TTITLE11=Big Bill Broonzy - I Feel So Good
TTITLE12=Lonnie Johnson - Guitar Blues
TTITLE13=Lonnie Johnson - No More Trouble Now
TTITLE14=Lightnin' Hopkins - Lightnin's Boogie
TTITLE15=Lightnin' Hopkins - Come Back Baby
TTITLE16=Blind Lemon Jefferson - Bad Luck Blues
TTITLE17=Blind Lemon Jefferson - Shuckin' Sugar Blues
EXTD=YEAR: 2005
EXTT0=
EXTT1=
EXTT2=
EXTT3=
EXTT4=
EXTT5=
EXTT6=
EXTT7=
EXTT8=
EXTT9=
EXTT10=
EXTT11=
EXTT12=
EXTT13=
EXTT14=
EXTT15=
EXTT16=
EXTT17=
PLAYORDER=
